<svg id="Группа_4" data-name="Группа 4" xmlns="http://www.w3.org/2000/svg" width="1000" height="1000" viewBox="0 0 1000 1000">
  <defs>
    <style>
      .cls-1 {
        fill-rule: evenodd;
      }
    </style>
  </defs>
  <path id="Фигура_363_1" data-name="Фигура 363 1" class="cls-1" d="M500.5,752C361.6,752,249,639.4,249,500.5S361.6,249,500.5,249,752,361.6,752,500.5,639.4,752,500.5,752Zm0-480.042c-126.22,0-228.542,102.322-228.542,228.542S374.28,729.042,500.5,729.042,729.042,626.72,729.042,500.5,626.72,271.958,500.5,271.958ZM611.184,520.175H519.747v91.437a19.247,19.247,0,1,1-38.494,0V520.175H389.816a19.248,19.248,0,1,1,0-38.495h91.437V390.243a19.247,19.247,0,1,1,38.494,0V481.68h91.437A19.248,19.248,0,1,1,611.184,520.175Z"/>
</svg>
