<svg xmlns="http://www.w3.org/2000/svg" width="100" height="100" viewBox="0 0 1000 1000">
  <metadata><?xpacket begin="﻿" id="W5M0MpCehiHzreSzNTczkc9d"?>
<x:xmpmeta xmlns:x="adobe:ns:meta/" x:xmptk="Adobe XMP Core 7.1-c000 79.a8731b9, 2021/09/09-00:37:38        ">
   <rdf:RDF xmlns:rdf="http://www.w3.org/1999/02/22-rdf-syntax-ns#">
      <rdf:Description rdf:about=""
            xmlns:xmp="http://ns.adobe.com/xap/1.0/">
         <xmp:CreatorTool>Adobe Photoshop 23.0 (Windows)</xmp:CreatorTool>
      </rdf:Description>
   </rdf:RDF>
</x:xmpmeta>
                                                                                                    
                                                                                                    
                                                                                                    
                                                                                                    
                                                                                                    
                                                                                                    
                                                                                                    
                                                                                                    
                                                                                                    
                                                                                                    
                                                                                                    
                                                                                                    
                                                                                                    
                                                                                                    
                                                                                                    
                                                                                                    
                                                                                                    
                                                                                                    
                                                                                                    
                                                                                                    
                           
<?xpacket end="w"?></metadata>
<defs>
    <style>
      .cls-1 {
        fill-rule: evenodd;
      }
    </style>
  </defs>
  <path id="Фигура_347_1" data-name="Фигура 347 1" class="cls-1" d="M300,250H700a50,50,0,0,1,50,50V700a50,50,0,0,1-50,50H300a50,50,0,0,1-50-50V300A50,50,0,0,1,300,250Zm22.21,19.532H677.79c24.547,0,44.447,20.637,44.447,46.094V684.374c0,25.457-19.9,46.094-44.447,46.094H322.21c-24.547,0-44.447-20.637-44.447-46.094V315.626C277.763,290.169,297.663,269.532,322.21,269.532Zm328.507,77.72H350.283A26.177,26.177,0,0,1,324.5,316.147H458.64c7.367,0,13.644-8.907,16.035-21.385H650.717A26.245,26.245,0,1,1,650.717,347.252ZM344.744,375.2h80.637a10.08,10.08,0,0,1,10.079,10.081v80.654a10.081,10.081,0,0,1-10.079,10.082H344.744a10.081,10.081,0,0,1-10.079-10.082V385.281A10.08,10.08,0,0,1,344.744,375.2Zm0.008,114.261,80.637-.054a10.082,10.082,0,0,1,10.086,10.075l0.053,80.654a10.081,10.081,0,0,1-10.072,10.089l-80.637.053A10.08,10.08,0,0,1,334.733,580.2l-0.053-80.654A10.08,10.08,0,0,1,344.752,489.461Zm0.034,114.692h80.636a10.081,10.081,0,0,1,10.08,10.082v80.653a10.081,10.081,0,0,1-10.08,10.082H344.786a10.081,10.081,0,0,1-10.08-10.082V614.235A10.081,10.081,0,0,1,344.786,604.153ZM460.64,375.448h80.636a10.081,10.081,0,0,1,10.08,10.082v80.654a10.081,10.081,0,0,1-10.08,10.082H460.64a10.081,10.081,0,0,1-10.08-10.082V385.53A10.081,10.081,0,0,1,460.64,375.448Zm0.008,114.262,80.636-.054a10.08,10.08,0,0,1,10.086,10.075l0.054,80.654a10.08,10.08,0,0,1-10.073,10.088l-80.636.054a10.081,10.081,0,0,1-10.087-10.075L450.575,499.8A10.08,10.08,0,0,1,460.648,489.71ZM460.681,604.4h80.637A10.08,10.08,0,0,1,551.4,614.483v80.654a10.081,10.081,0,0,1-10.079,10.082H460.681A10.08,10.08,0,0,1,450.6,695.137V614.483A10.079,10.079,0,0,1,460.681,604.4ZM576.535,375.448h80.636a10.081,10.081,0,0,1,10.08,10.082v80.654a10.081,10.081,0,0,1-10.08,10.082H576.535a10.08,10.08,0,0,1-10.079-10.082V385.53A10.08,10.08,0,0,1,576.535,375.448Zm0.008,114.262,80.637-.054a10.081,10.081,0,0,1,10.086,10.075l0.053,80.654a10.08,10.08,0,0,1-10.073,10.088l-80.636.054a10.08,10.08,0,0,1-10.086-10.075L566.47,499.8A10.08,10.08,0,0,1,576.543,489.71ZM576.577,604.4h80.636a10.079,10.079,0,0,1,10.079,10.081v80.654a10.08,10.08,0,0,1-10.079,10.082H576.577a10.081,10.081,0,0,1-10.08-10.082V614.483A10.08,10.08,0,0,1,576.577,604.4Z"/>
</svg>
