<svg id="Группа_4" data-name="Группа 4" xmlns="http://www.w3.org/2000/svg" width="1000" height="1000" viewBox="0 0 1000 1000">
  <defs>
    <style>
      .cls-1 {
        fill-rule: evenodd;
      }
    </style>
  </defs>
  <path id="Фигура_362_1" data-name="Фигура 362 1" class="cls-1" d="M500,752c-139.176,0-252-112.824-252-252S360.824,248,500,248,752,360.824,752,500,639.176,752,500,752Zm0-481c-126.471,0-229,102.525-229,229S373.529,729,500,729,729,626.471,729,500,626.471,271,500,271Zm92.126,321.55a19.333,19.333,0,0,1-27.342-.067L500,527.7l-64.784,64.784a19.286,19.286,0,1,1-27.274-27.274l64.784-64.784-64.784-64.785a19.286,19.286,0,1,1,27.274-27.274L500,473.154l64.784-64.784a19.286,19.286,0,1,1,27.274,27.274l-64.784,64.785,64.784,64.784A19.333,19.333,0,0,1,592.126,592.554Z"/>
</svg>
