<svg id="Группа_4" data-name="Группа 4" xmlns="http://www.w3.org/2000/svg" width="1000" height="1000" viewBox="0 0 1000 1000">
  <defs>
    <style>
      .cls-1 {
        fill-rule: evenodd;
      }
    </style>
  </defs>
  <path id="Фигура_369_1" data-name="Фигура 369 1" class="cls-1" d="M691.49,780H309.51A30.512,30.512,0,0,1,279,749.487V367.463a30.512,30.512,0,0,1,30.51-30.513H691.49A30.512,30.512,0,0,1,722,367.463V749.487A30.512,30.512,0,0,1,691.49,780ZM683.7,379.361a12.2,12.2,0,0,0-12.2-12.2H328.285a12.2,12.2,0,0,0-12.2,12.2V737.589a12.2,12.2,0,0,0,12.2,12.2H671.5a12.2,12.2,0,0,0,12.2-12.2V379.361ZM570.8,674.41V443.761c0-22.937,25.488-22.937,25.488,0V674.41C596.287,697.346,570.8,697.346,570.8,674.41Zm-83.585,0V443.761c0-22.937,25.488-22.937,25.488,0V674.41C512.7,697.346,487.214,697.346,487.214,674.41Zm-83.748,0V443.761c0-22.937,25.487-22.937,25.487,0V674.41C428.953,697.346,403.466,697.346,403.466,674.41ZM649.4,301.553H350.831c-7.319,0-13.252-6.83-13.252-15.256s5.933-15.257,13.252-15.257h72.175s0-56.728,0-37.834c0-.006,0-0.012,0-0.019-0.739,2.4-.138-12.186,11.618-12.186H567.6c12.489,0,11.62,15.515,11.62,9.38V271.04H649.4c7.069,0,12.8,6.831,12.8,15.257S656.471,301.553,649.4,301.553Zm-94.594-56.142H447.414V271.04H554.808V245.411Z"/>
</svg>
