<svg xmlns="http://www.w3.org/2000/svg" width="1000" height="1000" viewBox="0 0 1000 1000">
  <defs>
    <style>
      .cls-1 {
        fill-rule: evenodd;
      }
    </style>
  </defs>
  <path id="Фигура_350_1" data-name="Фигура 350 1" class="cls-1" d="M633.881,840.843H544.759V588.219h90.257c70.98,0,119,48.4,119,123.748C754.018,786.7,707.214,840.843,633.881,840.843ZM631.363,616.66H578.244V812.4h52.991c59.441,0,87.717-42.574,87.717-99.732C718.952,662.8,693.172,616.66,631.363,616.66Zm-40.517-86.849q-58.6,54.768-157.534,54.768H322.846V803.65A40.507,40.507,0,0,1,311.8,832a35.726,35.726,0,0,1-27.376,12.01q-15.376,0-26.9-12.01A39.553,39.553,0,0,1,246,803.65V203.126a45.921,45.921,0,0,1,46.108-46.12h141.2q59.548,0,100.861,17.775,41.289,17.791,66.759,47.562a185.687,185.687,0,0,1,36.983,68.7,284.406,284.406,0,0,1,11.527,81.191Q649.442,475.058,590.846,529.811ZM566.832,320.348A113.171,113.171,0,0,0,545.7,275.669q-15.376-19.681-42.745-31.707-27.377-12-69.642-12.011H322.846V509.633H433.312q69.162,0,104.223-33.629T572.6,371.273A225.886,225.886,0,0,0,566.832,320.348Z"/>
</svg>
