<svg xmlns="http://www.w3.org/2000/svg" width="1000" height="1000" viewBox="0 0 1000 1000">
  <defs>
    <style>
      .cls-1 {
        fill-rule: evenodd;
      }
    </style>
  </defs>
  <path id="D_копия" data-name="D копия" class="cls-1" d="M444.869,572.094q81.758,0,130.2-45.251,48.414-45.252,48.426-130.2a234.9,234.9,0,0,0-9.526-67.082A153.417,153.417,0,0,0,583.4,272.8q-21.043-24.6-55.174-39.3-34.143-14.68-83.358-14.687h-116.7a37.948,37.948,0,0,0-38.106,38.106V753.1a32.674,32.674,0,0,0,9.526,23.419q9.526,9.918,22.229,9.924a29.529,29.529,0,0,0,22.625-9.924,33.46,33.46,0,0,0,9.13-23.419v-181h91.3Zm-91.3-291.354h91.3q34.924,0,57.557,9.923t35.327,26.2a93.507,93.507,0,0,1,17.466,36.916,186.6,186.6,0,0,1,4.763,42.076q0,58.76-28.977,86.533-28.989,27.8-86.136,27.785h-91.3V280.74Zm183.4,503.089h73.657c60.606,0,99.288-44.738,99.288-106.482h0c0-62.257-39.688-102.245-98.351-102.245H536.976V783.829ZM564.65,598.6h43.9c51.083,0,72.39,38.12,72.39,79.327h0c0,47.226-23.37,82.4-72.5,82.4h-43.8V598.6Z"/>
</svg>
