<svg xmlns="http://www.w3.org/2000/svg" width="1000" height="1000" viewBox="0 0 1000 1000">
  <defs>
    <style>
      .cls-1 {
        fill-rule: evenodd;
      }
    </style>
  </defs>
  <path id="Прямоугольник_524_копия_3" data-name="Прямоугольник 524 копия 3" class="cls-1" d="M488.5,319A11.5,11.5,0,0,1,500,330.5v369a11.5,11.5,0,0,1-23,0v-369A11.5,11.5,0,0,1,488.5,319Zm370.063,0a11.5,11.5,0,0,1,11.5,11.5v369a11.5,11.5,0,0,1-23,0v-369A11.5,11.5,0,0,1,858.563,319ZM869,330.5A11.5,11.5,0,0,1,857.5,342h-369a11.5,11.5,0,0,1,0-23h369A11.5,11.5,0,0,1,869,330.5Zm1,369A11.5,11.5,0,0,1,858.5,711h-369a11.5,11.5,0,0,1,0-23h369A11.5,11.5,0,0,1,870,699.5ZM316.422,383H467.5a10.5,10.5,0,0,1,0,21.006H316.422A10.5,10.5,0,0,1,316.422,383ZM221.038,558.052l79.916-168.944a10.67,10.67,0,0,1,14.193-5.08l3.746,1.765a10.634,10.634,0,0,1,5.089,14.167L244.067,568.9a10.671,10.671,0,0,1-14.194,5.08l-3.745-1.766A10.632,10.632,0,0,1,221.038,558.052ZM478,393.588V581.412a10.592,10.592,0,0,1-21.183,0V393.588A10.592,10.592,0,0,1,478,393.588ZM239.738,570.148v123.7a10.15,10.15,0,0,1-20.3,0v-123.7A10.15,10.15,0,0,1,239.738,570.148ZM478,562.589V692.411a10.592,10.592,0,0,1-21.183,0V562.589A10.592,10.592,0,0,1,478,562.589ZM232.44,552H464.119a13,13,0,1,1,0,26H232.44A13,13,0,1,1,232.44,552Zm-1.006,135.007H466.007a12,12,0,1,1,0,23.993H231.434A12,12,0,1,1,231.434,687.006ZM607.2,474.119l67.475,116.438a11.955,11.955,0,0,1-4.4,16.365l-7.758,4.462A12.047,12.047,0,0,1,646.088,607L578.613,490.561a11.955,11.955,0,0,1,4.4-16.365l7.758-4.462A12.048,12.048,0,0,1,607.2,474.119Zm162.218-35.687L671.9,606.715a12.049,12.049,0,0,1-16.426,4.386l-7.765-4.467a11.955,11.955,0,0,1-4.4-16.365l97.517-168.283a12.048,12.048,0,0,1,16.425-4.386l7.765,4.467A11.956,11.956,0,0,1,769.414,438.432Z"/>
</svg>
